<svg xmlns="http://www.w3.org/2000/svg" height='900' width='900' style="background-color:green">
 <filter id="grayscale">
    <feColorMatrix type="matrix" values="0.3333 0.3333 0.3333 0 0 0.3333 0.3333 0.3333 0 0 0.3333 0.3333 0.3333 0 0 0 0 0 1 0"/>
  </filter>

<circle cx="450" filter="url(#grayscale)" cy="450" r="450" fill="blue" />
  <circle cx="30" cy="450" filter="url(#grayscale)" r="30" fill="white" />
  <circle cx="90" cy="450" filter="url(#grayscale)" r="30" fill="white" />
  <circle cx="150" cy="450" filter="url(#grayscale)" r="30" fill="white" />
  <circle cx="210" cy="450" filter="url(#grayscale)" r="30" fill="white" />
  <circle cx="270" cy="450" filter="url(#grayscale)" r="30" fill="white" />
  <circle cx="330" cy="450" filter="url(#grayscale)" r="30" fill="white" />
  <circle cx="390" cy="450" filter="url(#grayscale)" r="30" fill="white" />
  <circle cx="450" cy="450" filter="url(#grayscale)" r="30" fill="white" />
  <circle cx="510" cy="450" filter="url(#grayscale)" r="30" fill="white" />
  <circle cx="510" cy="450" filter="url(#grayscale)" r="30" fill="white" />
  <circle cx="510" cy="450" filter="url(#grayscale)" r="30" fill="white" />
  <circle cx="510" cy="450" filter="url(#grayscale)" r="30" fill="white" />
  <circle cx="510" cy="450" filter="url(#grayscale)" r="30" fill="white" />
  <circle cx="570" cy="450" filter="url(#grayscale)" r="30" fill="white" />
  <circle cx="630" cy="450" filter="url(#grayscale)" r="30" fill="white" />
  <circle cx="690" cy="450" filter="url(#grayscale)" r="30" fill="white" />
  <circle cx="690" cy="450" filter="url(#grayscale)" r="30" fill="white" />
  <circle cx="750" cy="450" filter="url(#grayscale)" r="30" fill="white" />
  <circle cx="810" cy="450" filter="url(#grayscale)" r="30" fill="white" />
  <circle cx="870" cy="450" filter="url(#grayscale)" r="30" fill="white" />
  <circle cx="870" cy="450" filter="url(#grayscale)" r="30" fill="white" />
  <circle cx="630" cy="510" filter="url(#grayscale)" r="30" fill="white" />
  <circle cx="690" cy="510" filter="url(#grayscale)" r="30" fill="white" />
  <circle cx="750" cy="510" filter="url(#grayscale)" r="30" fill="white" />
  <circle cx="810" cy="510" filter="url(#grayscale)" r="30" fill="white" />
  <circle cx="870" cy="510" filter="url(#grayscale)" r="30" fill="white" />
</svg>
